<?xml version="1.0" standalone="no"?>
<!DOCTYPE svg PUBLIC "-//W3C//DTD SVG 20010904//EN"
 "http://www.w3.org/TR/2001/REC-SVG-20010904/DTD/svg10.dtd">
<svg version="1.0" xmlns="http://www.w3.org/2000/svg"
 width="64.000000pt" height="64.000000pt" viewBox="0 0 64.000000 64.000000"
 preserveAspectRatio="xMidYMid meet">

<g transform="translate(0.000000,64.000000) scale(0.100000,-0.100000)"
fill="#000000" stroke="none">
<path d="M220 623 c-226 -79 -293 -361 -125 -528 65 -65 125 -89 225 -89 73 0
92 4 136 26 75 40 107 70 145 140 31 58 34 70 33 148 0 68 -4 93 -22 128 -12
23 -27 42 -32 42 -13 0 -13 4 10 -58 23 -61 26 -158 6 -215 -15 -40 -62 -107
-75 -107 -5 0 -14 13 -21 30 -25 59 -116 120 -180 120 -64 0 -155 -61 -180
-120 -7 -17 -16 -30 -21 -30 -16 0 -69 82 -80 124 -18 67 -7 176 24 229 57 97
129 139 247 145 80 4 89 2 144 -27 65 -35 87 -32 42 4 -65 52 -188 69 -276 38z
m176 -412 c47 -21 84 -68 87 -108 3 -44 -55 -68 -163 -68 -108 0 -166 24 -163
68 4 63 86 127 163 127 19 0 53 -9 76 -19z"/>
<path d="M540 525 c0 -8 5 -15 10 -15 6 0 10 7 10 15 0 8 -4 15 -10 15 -5 0
-10 -7 -10 -15z"/>
<path d="M274 496 c-43 -19 -64 -53 -64 -102 0 -51 27 -88 75 -104 73 -24 145
29 145 107 0 47 -22 81 -66 99 -41 17 -50 17 -90 0z m102 -40 c58 -49 20 -146
-56 -146 -76 0 -114 97 -56 146 15 13 40 24 56 24 16 0 41 -11 56 -24z"/>
</g>
</svg>
